<mxfile host="app.diagrams.net" agent="Mozilla/5.0 (Windows NT 10.0; Win64; x64) AppleWebKit/537.36 (KHTML, like Gecko) Chrome/135.0.0.0 Safari/537.36" version="26.2.14">
  <diagram name="Page-1" id="Ldt_hWRQuzVg5PRyzEKW">
    <mxGraphModel dx="1453" dy="765" grid="1" gridSize="10" guides="1" tooltips="1" connect="1" arrows="1" fold="1" page="1" pageScale="1" pageWidth="850" pageHeight="1100" math="0" shadow="0">
      <root>
        <mxCell id="0" />
        <mxCell id="1" parent="0" />
        <mxCell id="3kZzBHgJbdTeIqcRnTd6-3" style="edgeStyle=orthogonalEdgeStyle;rounded=0;orthogonalLoop=1;jettySize=auto;html=1;" edge="1" parent="1" source="3kZzBHgJbdTeIqcRnTd6-1" target="3kZzBHgJbdTeIqcRnTd6-2">
          <mxGeometry relative="1" as="geometry" />
        </mxCell>
        <mxCell id="3kZzBHgJbdTeIqcRnTd6-1" value="" style="editableCssRules=.*;html=1;shape=image;verticalLabelPosition=bottom;labelBackgroundColor=#ffffff;verticalAlign=top;aspect=fixed;imageAspect=0;image=data:image/svg+xml,PHN2ZyB4bWxucz0iaHR0cDovL3d3dy53My5vcmcvMjAwMC9zdmciIHhtbG5zOnY9Imh0dHBzOi8vdmVjdGEuaW8vbmFubyIgd2lkdGg9IjIwIiBoZWlnaHQ9IjE1IiB2aWV3Qm94PSIwIDAgMjAgMTUiPiYjeGE7CTxzdHlsZSB0eXBlPSJ0ZXh0L2NzcyI+JiN4YTsJLnN0MHtmaWxsOiM0Mjg1ZjQ7fSYjeGE7CTwvc3R5bGU+JiN4YTsJPHBhdGggY2xhc3M9InN0MCIgZD0iTTMgN2gxNGwtNy03em0xNS41IDJoLTFhMS40NCAxLjQ0IDAgMCAwLS43NS4yMkExLjQ0IDEuNDQgMCAwIDAgMTYgOWgtMWExLjU0IDEuNTQgMCAwIDAtMS41IDEuNVYxNUgxNXYtNC41aDFWMTVoMS41di00LjVoMVYxNUgyMHYtNC41QTEuNTQgMS41NCAwIDAgMCAxOC41IDl6TTUgOUg0YTEuNDQgMS40NCAwIDAgMC0uNzUuMjJBMS40NCAxLjQ0IDAgMCAwIDIuNSA5aC0xQTEuNTQgMS41NCAwIDAgMCAwIDEwLjVWMTVoMS41di00LjVoMVYxNUg0di00LjVoMVYxNWgxLjV2LTQuNUExLjU0IDEuNTQgMCAwIDAgNSA5em0yLjUgMHY2aDV2LTEuNUg5di0uNzVoMi41di0xLjVIOXYtLjc1aDMuNVY5eiIvPiYjeGE7PC9zdmc+;" vertex="1" parent="1">
          <mxGeometry x="392" y="10" width="66.67" height="50" as="geometry" />
        </mxCell>
        <mxCell id="3kZzBHgJbdTeIqcRnTd6-12" style="edgeStyle=orthogonalEdgeStyle;rounded=0;orthogonalLoop=1;jettySize=auto;html=1;" edge="1" parent="1" source="3kZzBHgJbdTeIqcRnTd6-2" target="3kZzBHgJbdTeIqcRnTd6-6">
          <mxGeometry relative="1" as="geometry">
            <Array as="points">
              <mxPoint x="425" y="180" />
              <mxPoint x="210" y="180" />
            </Array>
          </mxGeometry>
        </mxCell>
        <mxCell id="3kZzBHgJbdTeIqcRnTd6-13" style="edgeStyle=orthogonalEdgeStyle;rounded=0;orthogonalLoop=1;jettySize=auto;html=1;" edge="1" parent="1" source="3kZzBHgJbdTeIqcRnTd6-2" target="3kZzBHgJbdTeIqcRnTd6-5">
          <mxGeometry relative="1" as="geometry" />
        </mxCell>
        <mxCell id="3kZzBHgJbdTeIqcRnTd6-16" style="edgeStyle=orthogonalEdgeStyle;rounded=0;orthogonalLoop=1;jettySize=auto;html=1;" edge="1" parent="1" source="3kZzBHgJbdTeIqcRnTd6-2" target="3kZzBHgJbdTeIqcRnTd6-4">
          <mxGeometry relative="1" as="geometry" />
        </mxCell>
        <mxCell id="3kZzBHgJbdTeIqcRnTd6-17" style="edgeStyle=orthogonalEdgeStyle;rounded=0;orthogonalLoop=1;jettySize=auto;html=1;" edge="1" parent="1" source="3kZzBHgJbdTeIqcRnTd6-2" target="3kZzBHgJbdTeIqcRnTd6-7">
          <mxGeometry relative="1" as="geometry">
            <Array as="points">
              <mxPoint x="425" y="180" />
              <mxPoint x="632" y="180" />
            </Array>
          </mxGeometry>
        </mxCell>
        <mxCell id="3kZzBHgJbdTeIqcRnTd6-2" value="" style="html=1;outlineConnect=0;fillColor=#CCCCCC;strokeColor=#6881B3;gradientColor=none;gradientDirection=north;strokeWidth=2;shape=mxgraph.networks.bus;gradientColor=none;gradientDirection=north;fontColor=#ffffff;perimeter=backbonePerimeter;backboneSize=20;" vertex="1" parent="1">
          <mxGeometry x="175" y="130" width="500" height="20" as="geometry" />
        </mxCell>
        <mxCell id="3kZzBHgJbdTeIqcRnTd6-25" style="edgeStyle=orthogonalEdgeStyle;rounded=0;orthogonalLoop=1;jettySize=auto;html=1;" edge="1" parent="1" source="3kZzBHgJbdTeIqcRnTd6-4" target="3kZzBHgJbdTeIqcRnTd6-22">
          <mxGeometry relative="1" as="geometry" />
        </mxCell>
        <mxCell id="3kZzBHgJbdTeIqcRnTd6-4" value="Cache node" style="sketch=0;outlineConnect=0;fontColor=#232F3E;gradientColor=none;strokeColor=#232F3E;fillColor=#ffffff;dashed=0;verticalLabelPosition=bottom;verticalAlign=top;align=center;html=1;fontSize=12;fontStyle=0;aspect=fixed;shape=mxgraph.aws4.resourceIcon;resIcon=mxgraph.aws4.cache_node;" vertex="1" parent="1">
          <mxGeometry x="470" y="212.5" width="60" height="60" as="geometry" />
        </mxCell>
        <mxCell id="3kZzBHgJbdTeIqcRnTd6-24" style="edgeStyle=orthogonalEdgeStyle;rounded=0;orthogonalLoop=1;jettySize=auto;html=1;" edge="1" parent="1" source="3kZzBHgJbdTeIqcRnTd6-5" target="3kZzBHgJbdTeIqcRnTd6-21">
          <mxGeometry relative="1" as="geometry" />
        </mxCell>
        <mxCell id="3kZzBHgJbdTeIqcRnTd6-5" value="Cache node" style="sketch=0;outlineConnect=0;fontColor=#232F3E;gradientColor=none;strokeColor=#232F3E;fillColor=#ffffff;dashed=0;verticalLabelPosition=bottom;verticalAlign=top;align=center;html=1;fontSize=12;fontStyle=0;aspect=fixed;shape=mxgraph.aws4.resourceIcon;resIcon=mxgraph.aws4.cache_node;" vertex="1" parent="1">
          <mxGeometry x="330" y="212.5" width="60" height="60" as="geometry" />
        </mxCell>
        <mxCell id="3kZzBHgJbdTeIqcRnTd6-23" style="edgeStyle=orthogonalEdgeStyle;rounded=0;orthogonalLoop=1;jettySize=auto;html=1;" edge="1" parent="1" source="3kZzBHgJbdTeIqcRnTd6-6" target="3kZzBHgJbdTeIqcRnTd6-18">
          <mxGeometry relative="1" as="geometry" />
        </mxCell>
        <mxCell id="3kZzBHgJbdTeIqcRnTd6-6" value="Cache node" style="sketch=0;outlineConnect=0;fontColor=#232F3E;gradientColor=none;strokeColor=#232F3E;fillColor=#ffffff;dashed=0;verticalLabelPosition=bottom;verticalAlign=top;align=center;html=1;fontSize=12;fontStyle=0;aspect=fixed;shape=mxgraph.aws4.resourceIcon;resIcon=mxgraph.aws4.cache_node;" vertex="1" parent="1">
          <mxGeometry x="180" y="212.5" width="60" height="60" as="geometry" />
        </mxCell>
        <mxCell id="3kZzBHgJbdTeIqcRnTd6-7" value="" style="image;aspect=fixed;html=1;points=[];align=center;fontSize=12;image=img/lib/azure2/general/Input_Output.svg;" vertex="1" parent="1">
          <mxGeometry x="598" y="215" width="64" height="55.00000000000001" as="geometry" />
        </mxCell>
        <mxCell id="3kZzBHgJbdTeIqcRnTd6-8" value="BUS" style="text;html=1;align=center;verticalAlign=middle;whiteSpace=wrap;rounded=0;" vertex="1" parent="1">
          <mxGeometry x="395" y="125" width="60" height="30" as="geometry" />
        </mxCell>
        <mxCell id="3kZzBHgJbdTeIqcRnTd6-9" value="I/O" style="text;html=1;align=center;verticalAlign=middle;whiteSpace=wrap;rounded=0;" vertex="1" parent="1">
          <mxGeometry x="600" y="270" width="60" height="30" as="geometry" />
        </mxCell>
        <mxCell id="3kZzBHgJbdTeIqcRnTd6-18" value="" style="sketch=0;pointerEvents=1;shadow=0;dashed=0;html=1;strokeColor=none;fillColor=#434445;aspect=fixed;labelPosition=center;verticalLabelPosition=bottom;verticalAlign=top;align=center;outlineConnect=0;shape=mxgraph.vvd.cpu;" vertex="1" parent="1">
          <mxGeometry x="180" y="340" width="60" height="60" as="geometry" />
        </mxCell>
        <mxCell id="3kZzBHgJbdTeIqcRnTd6-21" value="" style="sketch=0;pointerEvents=1;shadow=0;dashed=0;html=1;strokeColor=none;fillColor=#434445;aspect=fixed;labelPosition=center;verticalLabelPosition=bottom;verticalAlign=top;align=center;outlineConnect=0;shape=mxgraph.vvd.cpu;" vertex="1" parent="1">
          <mxGeometry x="330" y="340" width="60" height="60" as="geometry" />
        </mxCell>
        <mxCell id="3kZzBHgJbdTeIqcRnTd6-22" value="" style="sketch=0;pointerEvents=1;shadow=0;dashed=0;html=1;strokeColor=none;fillColor=#434445;aspect=fixed;labelPosition=center;verticalLabelPosition=bottom;verticalAlign=top;align=center;outlineConnect=0;shape=mxgraph.vvd.cpu;" vertex="1" parent="1">
          <mxGeometry x="470" y="340" width="60" height="60" as="geometry" />
        </mxCell>
        <mxCell id="3kZzBHgJbdTeIqcRnTd6-26" value="CPU 1" style="text;html=1;align=center;verticalAlign=middle;whiteSpace=wrap;rounded=0;" vertex="1" parent="1">
          <mxGeometry x="180" y="400" width="60" height="30" as="geometry" />
        </mxCell>
        <mxCell id="3kZzBHgJbdTeIqcRnTd6-27" value="CPU 2" style="text;html=1;align=center;verticalAlign=middle;whiteSpace=wrap;rounded=0;" vertex="1" parent="1">
          <mxGeometry x="330" y="400" width="60" height="30" as="geometry" />
        </mxCell>
        <mxCell id="3kZzBHgJbdTeIqcRnTd6-29" value="CPU 3" style="text;html=1;align=center;verticalAlign=middle;whiteSpace=wrap;rounded=0;" vertex="1" parent="1">
          <mxGeometry x="470" y="400" width="60" height="30" as="geometry" />
        </mxCell>
        <mxCell id="3kZzBHgJbdTeIqcRnTd6-31" value="" style="rounded=1;whiteSpace=wrap;html=1;" vertex="1" parent="1">
          <mxGeometry x="280" y="470" width="290" height="60" as="geometry" />
        </mxCell>
        <mxCell id="3kZzBHgJbdTeIqcRnTd6-33" value="MULTIPROSESSING SIMETRIS" style="text;html=1;align=center;verticalAlign=middle;whiteSpace=wrap;rounded=0;" vertex="1" parent="1">
          <mxGeometry x="315" y="485" width="220" height="30" as="geometry" />
        </mxCell>
        <mxCell id="3kZzBHgJbdTeIqcRnTd6-39" style="edgeStyle=orthogonalEdgeStyle;rounded=0;orthogonalLoop=1;jettySize=auto;html=1;" edge="1" parent="1" source="3kZzBHgJbdTeIqcRnTd6-34" target="3kZzBHgJbdTeIqcRnTd6-38">
          <mxGeometry relative="1" as="geometry" />
        </mxCell>
        <mxCell id="3kZzBHgJbdTeIqcRnTd6-34" value="" style="sketch=0;outlineConnect=0;fontColor=#232F3E;gradientColor=none;fillColor=#ED7100;strokeColor=none;dashed=0;verticalLabelPosition=bottom;verticalAlign=top;align=center;html=1;fontSize=12;fontStyle=0;aspect=fixed;pointerEvents=1;shape=mxgraph.aws4.high_memory_instance;" vertex="1" parent="1">
          <mxGeometry x="1245" y="5.5" width="59" height="59" as="geometry" />
        </mxCell>
        <mxCell id="3kZzBHgJbdTeIqcRnTd6-35" value="MEMORY MAIN CPU" style="text;html=1;align=center;verticalAlign=middle;whiteSpace=wrap;rounded=0;" vertex="1" parent="1">
          <mxGeometry x="1240" y="70" width="70" height="30" as="geometry" />
        </mxCell>
        <mxCell id="3kZzBHgJbdTeIqcRnTd6-36" value="" style="image;aspect=fixed;html=1;points=[];align=center;fontSize=12;image=img/lib/azure2/general/Input_Output.svg;" vertex="1" parent="1">
          <mxGeometry x="1450" y="57.5" width="64" height="55" as="geometry" />
        </mxCell>
        <mxCell id="3kZzBHgJbdTeIqcRnTd6-37" value="I/O" style="text;html=1;align=center;verticalAlign=middle;whiteSpace=wrap;rounded=0;" vertex="1" parent="1">
          <mxGeometry x="1452" y="34.5" width="60" height="30" as="geometry" />
        </mxCell>
        <mxCell id="3kZzBHgJbdTeIqcRnTd6-38" value="" style="html=1;outlineConnect=0;fillColor=#CCCCCC;strokeColor=#6881B3;gradientColor=none;gradientDirection=north;strokeWidth=2;shape=mxgraph.networks.bus;gradientColor=none;gradientDirection=north;fontColor=#ffffff;perimeter=backbonePerimeter;backboneSize=20;" vertex="1" parent="1">
          <mxGeometry x="1025" y="155" width="500" height="20" as="geometry" />
        </mxCell>
        <mxCell id="3kZzBHgJbdTeIqcRnTd6-40" style="edgeStyle=orthogonalEdgeStyle;rounded=0;orthogonalLoop=1;jettySize=auto;html=1;entryX=0.912;entryY=0.021;entryDx=0;entryDy=0;entryPerimeter=0;" edge="1" parent="1" source="3kZzBHgJbdTeIqcRnTd6-36" target="3kZzBHgJbdTeIqcRnTd6-38">
          <mxGeometry relative="1" as="geometry" />
        </mxCell>
        <mxCell id="3kZzBHgJbdTeIqcRnTd6-41" value="BUS" style="text;html=1;align=center;verticalAlign=middle;whiteSpace=wrap;rounded=0;" vertex="1" parent="1">
          <mxGeometry x="1245" y="150" width="60" height="30" as="geometry" />
        </mxCell>
        <mxCell id="3kZzBHgJbdTeIqcRnTd6-66" style="edgeStyle=orthogonalEdgeStyle;rounded=0;orthogonalLoop=1;jettySize=auto;html=1;" edge="1" parent="1" source="3kZzBHgJbdTeIqcRnTd6-47" target="3kZzBHgJbdTeIqcRnTd6-51">
          <mxGeometry relative="1" as="geometry" />
        </mxCell>
        <mxCell id="3kZzBHgJbdTeIqcRnTd6-47" value="" style="pointerEvents=1;shadow=0;dashed=0;html=1;strokeColor=none;fillColor=#4495D1;labelPosition=center;verticalLabelPosition=bottom;verticalAlign=top;align=center;outlineConnect=0;shape=mxgraph.veeam.cpu;" vertex="1" parent="1">
          <mxGeometry x="1050" y="240" width="60" height="60" as="geometry" />
        </mxCell>
        <mxCell id="3kZzBHgJbdTeIqcRnTd6-67" style="edgeStyle=orthogonalEdgeStyle;rounded=0;orthogonalLoop=1;jettySize=auto;html=1;" edge="1" parent="1" source="3kZzBHgJbdTeIqcRnTd6-48" target="3kZzBHgJbdTeIqcRnTd6-52">
          <mxGeometry relative="1" as="geometry" />
        </mxCell>
        <mxCell id="3kZzBHgJbdTeIqcRnTd6-48" value="" style="pointerEvents=1;shadow=0;dashed=0;html=1;strokeColor=none;fillColor=#4495D1;labelPosition=center;verticalLabelPosition=bottom;verticalAlign=top;align=center;outlineConnect=0;shape=mxgraph.veeam.cpu;" vertex="1" parent="1">
          <mxGeometry x="1170" y="240" width="60" height="60" as="geometry" />
        </mxCell>
        <mxCell id="3kZzBHgJbdTeIqcRnTd6-68" style="edgeStyle=orthogonalEdgeStyle;rounded=0;orthogonalLoop=1;jettySize=auto;html=1;" edge="1" parent="1" source="3kZzBHgJbdTeIqcRnTd6-49" target="3kZzBHgJbdTeIqcRnTd6-53">
          <mxGeometry relative="1" as="geometry" />
        </mxCell>
        <mxCell id="3kZzBHgJbdTeIqcRnTd6-49" value="" style="pointerEvents=1;shadow=0;dashed=0;html=1;strokeColor=none;fillColor=#4495D1;labelPosition=center;verticalLabelPosition=bottom;verticalAlign=top;align=center;outlineConnect=0;shape=mxgraph.veeam.cpu;" vertex="1" parent="1">
          <mxGeometry x="1290" y="240" width="60" height="60" as="geometry" />
        </mxCell>
        <mxCell id="3kZzBHgJbdTeIqcRnTd6-69" style="edgeStyle=orthogonalEdgeStyle;rounded=0;orthogonalLoop=1;jettySize=auto;html=1;" edge="1" parent="1" source="3kZzBHgJbdTeIqcRnTd6-50" target="3kZzBHgJbdTeIqcRnTd6-54">
          <mxGeometry relative="1" as="geometry" />
        </mxCell>
        <mxCell id="3kZzBHgJbdTeIqcRnTd6-50" value="" style="pointerEvents=1;shadow=0;dashed=0;html=1;strokeColor=none;fillColor=#4495D1;labelPosition=center;verticalLabelPosition=bottom;verticalAlign=top;align=center;outlineConnect=0;shape=mxgraph.veeam.cpu;" vertex="1" parent="1">
          <mxGeometry x="1454" y="240" width="60" height="60" as="geometry" />
        </mxCell>
        <mxCell id="3kZzBHgJbdTeIqcRnTd6-51" value="" style="sketch=0;pointerEvents=1;shadow=0;dashed=0;html=1;strokeColor=none;fillColor=#434445;aspect=fixed;labelPosition=center;verticalLabelPosition=bottom;verticalAlign=top;align=center;outlineConnect=0;shape=mxgraph.vvd.memory;" vertex="1" parent="1">
          <mxGeometry x="1040.53" y="355" width="78.95" height="30" as="geometry" />
        </mxCell>
        <mxCell id="3kZzBHgJbdTeIqcRnTd6-52" value="" style="sketch=0;pointerEvents=1;shadow=0;dashed=0;html=1;strokeColor=none;fillColor=#434445;aspect=fixed;labelPosition=center;verticalLabelPosition=bottom;verticalAlign=top;align=center;outlineConnect=0;shape=mxgraph.vvd.memory;" vertex="1" parent="1">
          <mxGeometry x="1160.53" y="355" width="78.95" height="30" as="geometry" />
        </mxCell>
        <mxCell id="3kZzBHgJbdTeIqcRnTd6-53" value="" style="sketch=0;pointerEvents=1;shadow=0;dashed=0;html=1;strokeColor=none;fillColor=#434445;aspect=fixed;labelPosition=center;verticalLabelPosition=bottom;verticalAlign=top;align=center;outlineConnect=0;shape=mxgraph.vvd.memory;" vertex="1" parent="1">
          <mxGeometry x="1280.53" y="355" width="78.95" height="30" as="geometry" />
        </mxCell>
        <mxCell id="3kZzBHgJbdTeIqcRnTd6-54" value="" style="sketch=0;pointerEvents=1;shadow=0;dashed=0;html=1;strokeColor=none;fillColor=#434445;aspect=fixed;labelPosition=center;verticalLabelPosition=bottom;verticalAlign=top;align=center;outlineConnect=0;shape=mxgraph.vvd.memory;" vertex="1" parent="1">
          <mxGeometry x="1444.53" y="355" width="78.95" height="30" as="geometry" />
        </mxCell>
        <mxCell id="3kZzBHgJbdTeIqcRnTd6-55" value="SUB CPU 2" style="text;html=1;align=center;verticalAlign=middle;whiteSpace=wrap;rounded=0;" vertex="1" parent="1">
          <mxGeometry x="1165" y="300" width="70" height="30" as="geometry" />
        </mxCell>
        <mxCell id="3kZzBHgJbdTeIqcRnTd6-56" value="SUB CPU 1" style="text;html=1;align=center;verticalAlign=middle;resizable=0;points=[];autosize=1;strokeColor=none;fillColor=none;" vertex="1" parent="1">
          <mxGeometry x="1035" y="300" width="90" height="30" as="geometry" />
        </mxCell>
        <mxCell id="3kZzBHgJbdTeIqcRnTd6-57" value="SUB CPU 3" style="text;html=1;align=center;verticalAlign=middle;whiteSpace=wrap;rounded=0;" vertex="1" parent="1">
          <mxGeometry x="1285" y="300" width="70" height="30" as="geometry" />
        </mxCell>
        <mxCell id="3kZzBHgJbdTeIqcRnTd6-59" value="SUB CPU N" style="text;html=1;align=center;verticalAlign=middle;whiteSpace=wrap;rounded=0;" vertex="1" parent="1">
          <mxGeometry x="1449" y="300" width="70" height="30" as="geometry" />
        </mxCell>
        <mxCell id="3kZzBHgJbdTeIqcRnTd6-60" value="MEMORY" style="text;html=1;align=center;verticalAlign=middle;whiteSpace=wrap;rounded=0;" vertex="1" parent="1">
          <mxGeometry x="1050" y="385" width="60" height="30" as="geometry" />
        </mxCell>
        <mxCell id="3kZzBHgJbdTeIqcRnTd6-62" value="MEMORY" style="text;html=1;align=center;verticalAlign=middle;whiteSpace=wrap;rounded=0;" vertex="1" parent="1">
          <mxGeometry x="1290" y="385" width="60" height="30" as="geometry" />
        </mxCell>
        <mxCell id="3kZzBHgJbdTeIqcRnTd6-63" value="MEMORY" style="text;html=1;align=center;verticalAlign=middle;whiteSpace=wrap;rounded=0;" vertex="1" parent="1">
          <mxGeometry x="1170" y="385" width="60" height="30" as="geometry" />
        </mxCell>
        <mxCell id="3kZzBHgJbdTeIqcRnTd6-64" value="MEMORY" style="text;html=1;align=center;verticalAlign=middle;whiteSpace=wrap;rounded=0;" vertex="1" parent="1">
          <mxGeometry x="1454" y="385" width="60" height="30" as="geometry" />
        </mxCell>
        <mxCell id="3kZzBHgJbdTeIqcRnTd6-71" style="edgeStyle=orthogonalEdgeStyle;rounded=0;orthogonalLoop=1;jettySize=auto;html=1;entryX=0.918;entryY=1.031;entryDx=0;entryDy=0;entryPerimeter=0;" edge="1" parent="1" source="3kZzBHgJbdTeIqcRnTd6-50" target="3kZzBHgJbdTeIqcRnTd6-38">
          <mxGeometry relative="1" as="geometry" />
        </mxCell>
        <mxCell id="3kZzBHgJbdTeIqcRnTd6-76" style="edgeStyle=orthogonalEdgeStyle;rounded=0;orthogonalLoop=1;jettySize=auto;html=1;entryX=0.592;entryY=0.878;entryDx=0;entryDy=0;entryPerimeter=0;" edge="1" parent="1" source="3kZzBHgJbdTeIqcRnTd6-49" target="3kZzBHgJbdTeIqcRnTd6-38">
          <mxGeometry relative="1" as="geometry" />
        </mxCell>
        <mxCell id="3kZzBHgJbdTeIqcRnTd6-77" style="edgeStyle=orthogonalEdgeStyle;rounded=0;orthogonalLoop=1;jettySize=auto;html=1;entryX=0.348;entryY=0.933;entryDx=0;entryDy=0;entryPerimeter=0;" edge="1" parent="1" source="3kZzBHgJbdTeIqcRnTd6-48" target="3kZzBHgJbdTeIqcRnTd6-38">
          <mxGeometry relative="1" as="geometry" />
        </mxCell>
        <mxCell id="3kZzBHgJbdTeIqcRnTd6-78" style="edgeStyle=orthogonalEdgeStyle;rounded=0;orthogonalLoop=1;jettySize=auto;html=1;entryX=0.111;entryY=0.989;entryDx=0;entryDy=0;entryPerimeter=0;" edge="1" parent="1" source="3kZzBHgJbdTeIqcRnTd6-47" target="3kZzBHgJbdTeIqcRnTd6-38">
          <mxGeometry relative="1" as="geometry" />
        </mxCell>
        <mxCell id="3kZzBHgJbdTeIqcRnTd6-79" value="" style="rounded=1;whiteSpace=wrap;html=1;" vertex="1" parent="1">
          <mxGeometry x="1130" y="470" width="290" height="60" as="geometry" />
        </mxCell>
        <mxCell id="3kZzBHgJbdTeIqcRnTd6-80" value="MULTIPROSESSING ASIMETRIS" style="text;html=1;align=center;verticalAlign=middle;whiteSpace=wrap;rounded=0;" vertex="1" parent="1">
          <mxGeometry x="1165" y="485" width="220" height="30" as="geometry" />
        </mxCell>
        <mxCell id="3kZzBHgJbdTeIqcRnTd6-81" value="" style="endArrow=none;html=1;rounded=0;" edge="1" parent="1">
          <mxGeometry width="50" height="50" relative="1" as="geometry">
            <mxPoint x="850" y="600" as="sourcePoint" />
            <mxPoint x="850" as="targetPoint" />
          </mxGeometry>
        </mxCell>
      </root>
    </mxGraphModel>
  </diagram>
</mxfile>
